#define bt_width 16
#define bt_height 16
static unsigned char bt_bits[] = {
   0xc0, 0x00, 0xc0, 0x01, 0x40, 0x03, 0x40, 0x06, 0x48, 0x04, 0x58, 0x06,
   0x70, 0x03, 0xe0, 0x01, 0xc0, 0x01, 0x60, 0x03, 0x70, 0x06, 0x58, 0x04,
   0x48, 0x06, 0x40, 0x03, 0xc0, 0x01, 0xc0, 0x00 };
